<svg focusable="false" aria-hidden="true" xmlns="http://www.w3.org/2000/svg" xmlns:xlink="http://www.w3.org/1999/xlink" fill="white" version="1.1" id="Capa_1" width="800px" height="800px" viewBox="0 0 32 32" xml:space="preserve">
<g>
	<g>
		<path d="M13.675,10.344c0,0-2.072-3.233,0.109-4.801c-1.461,1.435,0.371,4.791,0.371,4.791s0,0,0.789,0    c-1.672-2.563-0.076-4.341,1.339-5.092c0.608,0.745,3.045,1.722,1.113,5.102c0.371,0.022,0.728-0.01,0.728-0.01    s1.36-2.74,0.335-3.916c1.617,0.563,0.191,3.926,0.191,3.926l0.728-0.01c0,0,1.483-2.12,0.694-4.77S16.593,0.75,15.757,0    c0.07,1.126-1.484,2.539-3.248,4.526c-1.764,1.987,0.399,5.817,0.399,5.817L13.675,10.344L13.675,10.344z"/>
		<path d="M12.393,14.365h7.214c1.226-0.86,2.092-2.146,2.344-3.626H10.049C10.049,10.739,10.415,13.161,12.393,14.365z"/>
		<polygon points="15.923,14.742 12.551,14.742 13.228,16.643 15.923,16.643 16.086,16.643 18.781,16.643 19.458,14.742     16.086,14.742   "/>
		<polygon points="16.005,17.068 13.275,17.068 14.861,32 16.005,32 16.036,32 17.182,32 18.767,17.068 16.036,17.068   "/>
	</g>
</g>
</svg>